<svg width="24" height="24" viewBox="0 0 24 24" fill="none" xmlns="http://www.w3.org/2000/svg">
<rect width="24" height="24" fill="#E14B0E"/>
<rect width="882" height="558" transform="translate(-342 -271)" fill="white"/>
<mask id="mask0_38_116" style="mask-type:alpha" maskUnits="userSpaceOnUse" x="0" y="0" width="24" height="24">
<rect width="24" height="24" fill="#D9D9D9"/>
</mask>
<g mask="url(#mask0_38_116)">
<path d="M17 7H19V5H17V7ZM18 21C16.6167 21 15.4375 20.5125 14.4625 19.5375C13.4875 18.5625 13 17.3833 13 16C13 14.6167 13.4875 13.4375 14.4625 12.4625C15.4375 11.4875 16.6167 11 18 11C19.3833 11 20.5625 11.4875 21.5375 12.4625C22.5125 13.4375 23 14.6167 23 16C23 17.3833 22.5125 18.5625 21.5375 19.5375C20.5625 20.5125 19.3833 21 18 21ZM17.5 19H18.5V16.5H21V15.5H18.5V13H17.5V15.5H15V16.5H17.5V19ZM23 11.125C22.35 10.425 21.5917 9.89583 20.725 9.5375C19.8583 9.17917 18.95 9 18 9C17.8167 9 17.6458 9.00417 17.4875 9.0125C17.3292 9.02083 17.1667 9.04167 17 9.075V8L10 2.95V1H23V11.125ZM1 19V9L8 4L15 9V9.675C13.8 10.2417 12.8333 11.1042 12.1 12.2625C11.3667 13.4208 11 14.6667 11 16C11 16.5167 11.0542 17.0292 11.1625 17.5375C11.2708 18.0458 11.4417 18.5333 11.675 19H10V13H6V19H1Z" fill="#E14B0E"/>
</g>
</svg>
