<svg width="20" height="20" viewBox="0 0 20 20" fill="none" xmlns="http://www.w3.org/2000/svg">
<g id="Google">
<path id="Vector" d="M19.4781 10.2545C19.4781 9.48328 19.4141 8.92052 19.2756 8.33691H10.2666V11.8177H15.5547C15.4481 12.6827 14.8724 13.9854 13.593 14.8608L13.575 14.9773L16.4235 17.1343L16.6208 17.1536C18.4333 15.5174 19.4781 13.11 19.4781 10.2545Z" fill="#4285F4"/>
<path id="Vector_2" d="M10.2662 19.4253C12.8569 19.4253 15.0318 18.5915 16.6204 17.1534L13.5925 14.8606C12.7823 15.4129 11.6948 15.7985 10.2662 15.7985C7.72877 15.7985 5.57517 14.1624 4.80747 11.9009L4.69494 11.9102L1.73307 14.1509L1.69434 14.2561C3.27222 17.32 6.51332 19.4253 10.2662 19.4253Z" fill="#34A853"/>
<path id="Vector_3" d="M4.80751 11.9011C4.60495 11.3175 4.48772 10.6921 4.48772 10.046C4.48772 9.39985 4.60495 8.77457 4.79685 8.19097L4.79149 8.06668L1.7925 5.79004L1.69438 5.83566C1.04405 7.10711 0.670898 8.5349 0.670898 10.046C0.670898 11.5572 1.04405 12.9849 1.69438 14.2563L4.80751 11.9011Z" fill="#FBBC05"/>
<path id="Vector_4" d="M10.2662 4.29319C12.0679 4.29319 13.2833 5.05397 13.9764 5.68973L16.6844 3.10516C15.0212 1.59403 12.8569 0.666504 10.2662 0.666504C6.51332 0.666504 3.27222 2.77165 1.69434 5.83557L4.79681 8.19089C5.57517 5.9294 7.72877 4.29319 10.2662 4.29319Z" fill="#EB4335"/>
</g>
</svg>
