<svg width="24" height="24" viewBox="0 0 24 24" fill="none" xmlns="http://www.w3.org/2000/svg">
<g id="Frame 368">
<mask id="mask0_1505_17757" style="mask-type:alpha" maskUnits="userSpaceOnUse" x="0" y="0" width="24" height="24">
<rect id="Bounding box" width="24" height="24" fill="#D9D9D9"/>
</mask>
<g mask="url(#mask0_1505_17757)">
<path id="call_quality" d="M18.95 22C16.8 22 14.7042 21.5208 12.6625 20.5625C10.6208 19.6042 8.8125 18.3375 7.2375 16.7625C5.6625 15.1875 4.39583 13.3792 3.4375 11.3375C2.47917 9.29583 2 7.2 2 5.05C2 4.75 2.1 4.5 2.3 4.3C2.5 4.1 2.75 4 3.05 4H7.1C7.33333 4 7.54167 4.075 7.725 4.225C7.90833 4.375 8.01667 4.56667 8.05 4.8L8.7 8.3C8.73333 8.53333 8.72917 8.74583 8.6875 8.9375C8.64583 9.12917 8.55 9.3 8.4 9.45L5.975 11.9C6.675 13.1 7.55417 14.225 8.6125 15.275C9.67083 16.325 10.8333 17.2333 12.1 18L14.45 15.65C14.6 15.5 14.7958 15.3875 15.0375 15.3125C15.2792 15.2375 15.5167 15.2167 15.75 15.25L19.2 15.95C19.4333 16 19.625 16.1125 19.775 16.2875C19.925 16.4625 20 16.6667 20 16.9V20.95C20 21.25 19.9 21.5 19.7 21.7C19.5 21.9 19.25 22 18.95 22ZM5.025 10L6.675 8.35L6.25 6H4.025C4.10833 6.68333 4.225 7.35833 4.375 8.025C4.525 8.69167 4.74167 9.35 5.025 10ZM13.975 18.95C14.625 19.2333 15.2875 19.4583 15.9625 19.625C16.6375 19.7917 17.3167 19.9 18 19.95V17.75L15.65 17.275L13.975 18.95ZM17 12C15.6167 12 14.4375 11.5125 13.4625 10.5375C12.4875 9.5625 12 8.38333 12 7C12 5.61667 12.4875 4.4375 13.4625 3.4625C14.4375 2.4875 15.6167 2 17 2C18.3833 2 19.5625 2.4875 20.5375 3.4625C21.5125 4.4375 22 5.61667 22 7C22 8.38333 21.5125 9.5625 20.5375 10.5375C19.5625 11.5125 18.3833 12 17 12ZM16.5 10H17.5V6H16.5V10ZM17 5C17.1333 5 17.25 4.95 17.35 4.85C17.45 4.75 17.5 4.63333 17.5 4.5C17.5 4.36667 17.45 4.25 17.35 4.15C17.25 4.05 17.1333 4 17 4C16.8667 4 16.75 4.05 16.65 4.15C16.55 4.25 16.5 4.36667 16.5 4.5C16.5 4.63333 16.55 4.75 16.65 4.85C16.75 4.95 16.8667 5 17 5Z" fill="#290D03"/>
</g>
</g>
</svg>
