<svg width="14" height="12" viewBox="0 0 14 12" fill="none" xmlns="http://www.w3.org/2000/svg">
<path d="M6.99967 9.66667C7.83301 9.66667 8.54134 9.375 9.12467 8.79167C9.70801 8.20833 9.99967 7.5 9.99967 6.66667C9.99967 5.83333 9.70801 5.125 9.12467 4.54167C8.54134 3.95833 7.83301 3.66667 6.99967 3.66667C6.16634 3.66667 5.45801 3.95833 4.87467 4.54167C4.29134 5.125 3.99967 5.83333 3.99967 6.66667C3.99967 7.5 4.29134 8.20833 4.87467 8.79167C5.45801 9.375 6.16634 9.66667 6.99967 9.66667ZM1.66634 12C1.29967 12 0.985786 11.8694 0.724674 11.6083C0.463563 11.3472 0.333008 11.0333 0.333008 10.6667V2.66667C0.333008 2.3 0.463563 1.98611 0.724674 1.725C0.985786 1.46389 1.29967 1.33333 1.66634 1.33333H3.76634L4.99967 0H8.99967L10.233 1.33333H12.333C12.6997 1.33333 13.0136 1.46389 13.2747 1.725C13.5358 1.98611 13.6663 2.3 13.6663 2.66667V10.6667C13.6663 11.0333 13.5358 11.3472 13.2747 11.6083C13.0136 11.8694 12.6997 12 12.333 12H1.66634Z" fill="white"/>
</svg>
